<mxfile host="app.diagrams.net" modified="2021-04-26T13:14:51.569Z" agent="5.0 (Windows NT 10.0; Win64; x64) AppleWebKit/537.36 (KHTML, like Gecko) Chrome/90.0.4430.72 Safari/537.36" etag="gz0xp9HRJNB3uFepDVbw" version="14.6.6" type="github">
  <diagram id="x4oDXer3UmMAbWq6n8sA" name="Page-1">
    <mxGraphModel dx="599" dy="1140" grid="1" gridSize="10" guides="1" tooltips="1" connect="1" arrows="1" fold="1" page="1" pageScale="1" pageWidth="1169" pageHeight="827" math="0" shadow="0">
      <root>
        <mxCell id="0" />
        <mxCell id="1" parent="0" />
        <mxCell id="oe1nVjeeDrZ-jlYFfPf0-22" style="edgeStyle=none;rounded=0;orthogonalLoop=1;jettySize=auto;html=1;exitX=1;exitY=0.5;exitDx=0;exitDy=0;entryX=0;entryY=0.5;entryDx=0;entryDy=0;endArrow=none;endFill=0;" edge="1" parent="1" source="oe1nVjeeDrZ-jlYFfPf0-1" target="oe1nVjeeDrZ-jlYFfPf0-2">
          <mxGeometry relative="1" as="geometry" />
        </mxCell>
        <mxCell id="oe1nVjeeDrZ-jlYFfPf0-1" value="Grupo" style="rounded=1;whiteSpace=wrap;html=1;" vertex="1" parent="1">
          <mxGeometry x="40" y="290" width="120" height="60" as="geometry" />
        </mxCell>
        <mxCell id="oe1nVjeeDrZ-jlYFfPf0-24" style="edgeStyle=none;rounded=0;orthogonalLoop=1;jettySize=auto;html=1;exitX=1;exitY=0.5;exitDx=0;exitDy=0;entryX=0;entryY=0.5;entryDx=0;entryDy=0;endArrow=none;endFill=0;" edge="1" parent="1" source="oe1nVjeeDrZ-jlYFfPf0-2" target="oe1nVjeeDrZ-jlYFfPf0-3">
          <mxGeometry relative="1" as="geometry" />
        </mxCell>
        <mxCell id="oe1nVjeeDrZ-jlYFfPf0-2" value="Pertenece" style="rhombus;whiteSpace=wrap;html=1;" vertex="1" parent="1">
          <mxGeometry x="230" y="280" width="120" height="80" as="geometry" />
        </mxCell>
        <mxCell id="oe1nVjeeDrZ-jlYFfPf0-25" style="edgeStyle=none;rounded=0;orthogonalLoop=1;jettySize=auto;html=1;exitX=0.5;exitY=1;exitDx=0;exitDy=0;entryX=0.5;entryY=0;entryDx=0;entryDy=0;endArrow=none;endFill=0;" edge="1" parent="1" source="oe1nVjeeDrZ-jlYFfPf0-3" target="oe1nVjeeDrZ-jlYFfPf0-4">
          <mxGeometry relative="1" as="geometry" />
        </mxCell>
        <mxCell id="oe1nVjeeDrZ-jlYFfPf0-3" value="Afiliados" style="rounded=1;whiteSpace=wrap;html=1;" vertex="1" parent="1">
          <mxGeometry x="480" y="290" width="120" height="60" as="geometry" />
        </mxCell>
        <mxCell id="oe1nVjeeDrZ-jlYFfPf0-26" style="edgeStyle=none;rounded=0;orthogonalLoop=1;jettySize=auto;html=1;exitX=1;exitY=0.5;exitDx=0;exitDy=0;entryX=0;entryY=0.5;entryDx=0;entryDy=0;endArrow=none;endFill=0;" edge="1" parent="1" source="oe1nVjeeDrZ-jlYFfPf0-4" target="oe1nVjeeDrZ-jlYFfPf0-5">
          <mxGeometry relative="1" as="geometry" />
        </mxCell>
        <mxCell id="oe1nVjeeDrZ-jlYFfPf0-4" value="Vende" style="rhombus;whiteSpace=wrap;html=1;" vertex="1" parent="1">
          <mxGeometry x="480" y="430" width="120" height="80" as="geometry" />
        </mxCell>
        <mxCell id="oe1nVjeeDrZ-jlYFfPf0-27" style="edgeStyle=none;rounded=0;orthogonalLoop=1;jettySize=auto;html=1;exitX=1;exitY=0.5;exitDx=0;exitDy=0;entryX=0;entryY=0.5;entryDx=0;entryDy=0;endArrow=none;endFill=0;" edge="1" parent="1" source="oe1nVjeeDrZ-jlYFfPf0-5" target="oe1nVjeeDrZ-jlYFfPf0-6">
          <mxGeometry relative="1" as="geometry" />
        </mxCell>
        <mxCell id="oe1nVjeeDrZ-jlYFfPf0-5" value="Rifas" style="rounded=1;whiteSpace=wrap;html=1;" vertex="1" parent="1">
          <mxGeometry x="720" y="440" width="120" height="60" as="geometry" />
        </mxCell>
        <mxCell id="oe1nVjeeDrZ-jlYFfPf0-28" style="edgeStyle=none;rounded=0;orthogonalLoop=1;jettySize=auto;html=1;exitX=1;exitY=0.5;exitDx=0;exitDy=0;entryX=0;entryY=0.5;entryDx=0;entryDy=0;endArrow=none;endFill=0;" edge="1" parent="1" source="oe1nVjeeDrZ-jlYFfPf0-6" target="oe1nVjeeDrZ-jlYFfPf0-7">
          <mxGeometry relative="1" as="geometry" />
        </mxCell>
        <mxCell id="oe1nVjeeDrZ-jlYFfPf0-6" value="Puede ser" style="rhombus;whiteSpace=wrap;html=1;" vertex="1" parent="1">
          <mxGeometry x="950" y="430" width="120" height="80" as="geometry" />
        </mxCell>
        <mxCell id="oe1nVjeeDrZ-jlYFfPf0-29" style="edgeStyle=none;rounded=0;orthogonalLoop=1;jettySize=auto;html=1;exitX=0.5;exitY=0;exitDx=0;exitDy=0;entryX=0.5;entryY=1;entryDx=0;entryDy=0;endArrow=none;endFill=0;" edge="1" parent="1" source="oe1nVjeeDrZ-jlYFfPf0-7" target="oe1nVjeeDrZ-jlYFfPf0-12">
          <mxGeometry relative="1" as="geometry" />
        </mxCell>
        <mxCell id="oe1nVjeeDrZ-jlYFfPf0-64" style="edgeStyle=orthogonalEdgeStyle;rounded=0;orthogonalLoop=1;jettySize=auto;html=1;exitX=0.5;exitY=1;exitDx=0;exitDy=0;endArrow=none;endFill=0;" edge="1" parent="1" source="oe1nVjeeDrZ-jlYFfPf0-7" target="oe1nVjeeDrZ-jlYFfPf0-63">
          <mxGeometry relative="1" as="geometry" />
        </mxCell>
        <mxCell id="oe1nVjeeDrZ-jlYFfPf0-7" value="Rifa Vendida" style="rounded=1;whiteSpace=wrap;html=1;" vertex="1" parent="1">
          <mxGeometry x="1169" y="440" width="120" height="60" as="geometry" />
        </mxCell>
        <mxCell id="oe1nVjeeDrZ-jlYFfPf0-36" style="edgeStyle=orthogonalEdgeStyle;rounded=0;orthogonalLoop=1;jettySize=auto;html=1;exitX=0;exitY=0.5;exitDx=0;exitDy=0;entryX=1;entryY=0.5;entryDx=0;entryDy=0;endArrow=none;endFill=0;" edge="1" parent="1" source="oe1nVjeeDrZ-jlYFfPf0-8" target="oe1nVjeeDrZ-jlYFfPf0-9">
          <mxGeometry relative="1" as="geometry" />
        </mxCell>
        <mxCell id="oe1nVjeeDrZ-jlYFfPf0-40" style="edgeStyle=orthogonalEdgeStyle;rounded=0;orthogonalLoop=1;jettySize=auto;html=1;exitX=1;exitY=0.5;exitDx=0;exitDy=0;endArrow=none;endFill=0;" edge="1" parent="1" source="oe1nVjeeDrZ-jlYFfPf0-8">
          <mxGeometry relative="1" as="geometry">
            <mxPoint x="420" y="470" as="targetPoint" />
          </mxGeometry>
        </mxCell>
        <mxCell id="oe1nVjeeDrZ-jlYFfPf0-8" value="Tienen un" style="rhombus;whiteSpace=wrap;html=1;" vertex="1" parent="1">
          <mxGeometry x="230" y="430" width="120" height="80" as="geometry" />
        </mxCell>
        <mxCell id="oe1nVjeeDrZ-jlYFfPf0-9" value="Sexo" style="rounded=1;whiteSpace=wrap;html=1;" vertex="1" parent="1">
          <mxGeometry x="40" y="440" width="120" height="60" as="geometry" />
        </mxCell>
        <mxCell id="oe1nVjeeDrZ-jlYFfPf0-37" value="" style="edgeStyle=orthogonalEdgeStyle;rounded=0;orthogonalLoop=1;jettySize=auto;html=1;endArrow=none;endFill=0;" edge="1" parent="1" source="oe1nVjeeDrZ-jlYFfPf0-10" target="oe1nVjeeDrZ-jlYFfPf0-11">
          <mxGeometry relative="1" as="geometry" />
        </mxCell>
        <mxCell id="oe1nVjeeDrZ-jlYFfPf0-38" style="edgeStyle=orthogonalEdgeStyle;rounded=0;orthogonalLoop=1;jettySize=auto;html=1;exitX=1;exitY=0.5;exitDx=0;exitDy=0;endArrow=none;endFill=0;" edge="1" parent="1" source="oe1nVjeeDrZ-jlYFfPf0-10">
          <mxGeometry relative="1" as="geometry">
            <mxPoint x="440" y="320" as="targetPoint" />
            <Array as="points">
              <mxPoint x="420" y="600" />
              <mxPoint x="420" y="320" />
            </Array>
          </mxGeometry>
        </mxCell>
        <mxCell id="oe1nVjeeDrZ-jlYFfPf0-10" value="Tienen" style="rhombus;whiteSpace=wrap;html=1;" vertex="1" parent="1">
          <mxGeometry x="230" y="560" width="120" height="80" as="geometry" />
        </mxCell>
        <mxCell id="oe1nVjeeDrZ-jlYFfPf0-11" value="Estado Civil" style="rounded=1;whiteSpace=wrap;html=1;" vertex="1" parent="1">
          <mxGeometry x="40" y="570" width="120" height="60" as="geometry" />
        </mxCell>
        <mxCell id="oe1nVjeeDrZ-jlYFfPf0-30" style="edgeStyle=none;rounded=0;orthogonalLoop=1;jettySize=auto;html=1;exitX=0.5;exitY=0;exitDx=0;exitDy=0;entryX=0.5;entryY=1;entryDx=0;entryDy=0;endArrow=none;endFill=0;" edge="1" parent="1" source="oe1nVjeeDrZ-jlYFfPf0-12" target="oe1nVjeeDrZ-jlYFfPf0-13">
          <mxGeometry relative="1" as="geometry" />
        </mxCell>
        <mxCell id="oe1nVjeeDrZ-jlYFfPf0-12" value="Compra" style="rhombus;whiteSpace=wrap;html=1;" vertex="1" parent="1">
          <mxGeometry x="1169" y="280" width="120" height="80" as="geometry" />
        </mxCell>
        <mxCell id="oe1nVjeeDrZ-jlYFfPf0-31" style="edgeStyle=none;rounded=0;orthogonalLoop=1;jettySize=auto;html=1;exitX=0;exitY=0.5;exitDx=0;exitDy=0;entryX=1;entryY=0.5;entryDx=0;entryDy=0;endArrow=none;endFill=0;" edge="1" parent="1" source="oe1nVjeeDrZ-jlYFfPf0-13" target="oe1nVjeeDrZ-jlYFfPf0-14">
          <mxGeometry relative="1" as="geometry" />
        </mxCell>
        <mxCell id="oe1nVjeeDrZ-jlYFfPf0-80" style="edgeStyle=orthogonalEdgeStyle;rounded=0;orthogonalLoop=1;jettySize=auto;html=1;exitX=1;exitY=0.5;exitDx=0;exitDy=0;endArrow=none;endFill=0;" edge="1" parent="1" source="oe1nVjeeDrZ-jlYFfPf0-13">
          <mxGeometry relative="1" as="geometry">
            <mxPoint x="1410" y="169.5882352941178" as="targetPoint" />
          </mxGeometry>
        </mxCell>
        <mxCell id="oe1nVjeeDrZ-jlYFfPf0-119" style="edgeStyle=orthogonalEdgeStyle;rounded=0;orthogonalLoop=1;jettySize=auto;html=1;exitX=0.5;exitY=0;exitDx=0;exitDy=0;entryX=0.5;entryY=1;entryDx=0;entryDy=0;endArrow=none;endFill=0;" edge="1" parent="1" source="oe1nVjeeDrZ-jlYFfPf0-13" target="oe1nVjeeDrZ-jlYFfPf0-118">
          <mxGeometry relative="1" as="geometry" />
        </mxCell>
        <mxCell id="oe1nVjeeDrZ-jlYFfPf0-13" value="Comprador" style="rounded=1;whiteSpace=wrap;html=1;" vertex="1" parent="1">
          <mxGeometry x="1169" y="140" width="120" height="60" as="geometry" />
        </mxCell>
        <mxCell id="oe1nVjeeDrZ-jlYFfPf0-32" style="edgeStyle=none;rounded=0;orthogonalLoop=1;jettySize=auto;html=1;exitX=0;exitY=0.5;exitDx=0;exitDy=0;entryX=1;entryY=0.5;entryDx=0;entryDy=0;endArrow=none;endFill=0;" edge="1" parent="1" source="oe1nVjeeDrZ-jlYFfPf0-14" target="oe1nVjeeDrZ-jlYFfPf0-15">
          <mxGeometry relative="1" as="geometry" />
        </mxCell>
        <mxCell id="oe1nVjeeDrZ-jlYFfPf0-14" value="Puede ser" style="rhombus;whiteSpace=wrap;html=1;" vertex="1" parent="1">
          <mxGeometry x="930" y="130" width="120" height="80" as="geometry" />
        </mxCell>
        <mxCell id="oe1nVjeeDrZ-jlYFfPf0-33" style="edgeStyle=none;rounded=0;orthogonalLoop=1;jettySize=auto;html=1;exitX=0;exitY=0.5;exitDx=0;exitDy=0;entryX=1;entryY=0.5;entryDx=0;entryDy=0;endArrow=none;endFill=0;" edge="1" parent="1" source="oe1nVjeeDrZ-jlYFfPf0-15" target="oe1nVjeeDrZ-jlYFfPf0-16">
          <mxGeometry relative="1" as="geometry" />
        </mxCell>
        <mxCell id="oe1nVjeeDrZ-jlYFfPf0-15" value="Persona" style="rounded=1;whiteSpace=wrap;html=1;" vertex="1" parent="1">
          <mxGeometry x="700" y="140" width="120" height="60" as="geometry" />
        </mxCell>
        <mxCell id="oe1nVjeeDrZ-jlYFfPf0-34" style="edgeStyle=none;rounded=0;orthogonalLoop=1;jettySize=auto;html=1;exitX=0.5;exitY=1;exitDx=0;exitDy=0;entryX=0.5;entryY=0;entryDx=0;entryDy=0;endArrow=none;endFill=0;" edge="1" parent="1" source="oe1nVjeeDrZ-jlYFfPf0-16" target="oe1nVjeeDrZ-jlYFfPf0-3">
          <mxGeometry relative="1" as="geometry" />
        </mxCell>
        <mxCell id="oe1nVjeeDrZ-jlYFfPf0-16" value="Puede ser" style="rhombus;whiteSpace=wrap;html=1;" vertex="1" parent="1">
          <mxGeometry x="480" y="130" width="120" height="80" as="geometry" />
        </mxCell>
        <mxCell id="oe1nVjeeDrZ-jlYFfPf0-43" style="edgeStyle=orthogonalEdgeStyle;rounded=0;orthogonalLoop=1;jettySize=auto;html=1;exitX=1;exitY=0.5;exitDx=0;exitDy=0;endArrow=none;endFill=0;entryX=0.5;entryY=0;entryDx=0;entryDy=0;" edge="1" parent="1" source="oe1nVjeeDrZ-jlYFfPf0-42" target="oe1nVjeeDrZ-jlYFfPf0-15">
          <mxGeometry relative="1" as="geometry">
            <mxPoint x="760" as="targetPoint" />
          </mxGeometry>
        </mxCell>
        <mxCell id="oe1nVjeeDrZ-jlYFfPf0-49" style="edgeStyle=orthogonalEdgeStyle;rounded=0;orthogonalLoop=1;jettySize=auto;html=1;exitX=0;exitY=0.5;exitDx=0;exitDy=0;entryX=1;entryY=0.5;entryDx=0;entryDy=0;endArrow=none;endFill=0;" edge="1" parent="1" source="oe1nVjeeDrZ-jlYFfPf0-42" target="oe1nVjeeDrZ-jlYFfPf0-46">
          <mxGeometry relative="1" as="geometry" />
        </mxCell>
        <mxCell id="oe1nVjeeDrZ-jlYFfPf0-42" value="Tiene" style="rhombus;whiteSpace=wrap;html=1;" vertex="1" parent="1">
          <mxGeometry x="480" y="-10" width="120" height="80" as="geometry" />
        </mxCell>
        <mxCell id="oe1nVjeeDrZ-jlYFfPf0-45" style="edgeStyle=orthogonalEdgeStyle;rounded=0;orthogonalLoop=1;jettySize=auto;html=1;exitX=1;exitY=0.5;exitDx=0;exitDy=0;endArrow=none;endFill=0;" edge="1" parent="1" source="oe1nVjeeDrZ-jlYFfPf0-44">
          <mxGeometry relative="1" as="geometry">
            <mxPoint x="760" y="30" as="targetPoint" />
          </mxGeometry>
        </mxCell>
        <mxCell id="oe1nVjeeDrZ-jlYFfPf0-48" style="edgeStyle=orthogonalEdgeStyle;rounded=0;orthogonalLoop=1;jettySize=auto;html=1;exitX=0;exitY=0.5;exitDx=0;exitDy=0;entryX=1;entryY=0.5;entryDx=0;entryDy=0;endArrow=none;endFill=0;" edge="1" parent="1" source="oe1nVjeeDrZ-jlYFfPf0-44" target="oe1nVjeeDrZ-jlYFfPf0-47">
          <mxGeometry relative="1" as="geometry" />
        </mxCell>
        <mxCell id="oe1nVjeeDrZ-jlYFfPf0-44" value="Tiene" style="rhombus;whiteSpace=wrap;html=1;" vertex="1" parent="1">
          <mxGeometry x="480" y="-140" width="120" height="80" as="geometry" />
        </mxCell>
        <mxCell id="oe1nVjeeDrZ-jlYFfPf0-46" value="Contacto" style="rounded=1;whiteSpace=wrap;html=1;" vertex="1" parent="1">
          <mxGeometry x="240" width="120" height="60" as="geometry" />
        </mxCell>
        <mxCell id="oe1nVjeeDrZ-jlYFfPf0-51" style="edgeStyle=orthogonalEdgeStyle;rounded=0;orthogonalLoop=1;jettySize=auto;html=1;exitX=0.5;exitY=0;exitDx=0;exitDy=0;entryX=0.5;entryY=1;entryDx=0;entryDy=0;endArrow=none;endFill=0;" edge="1" parent="1" source="oe1nVjeeDrZ-jlYFfPf0-47" target="oe1nVjeeDrZ-jlYFfPf0-50">
          <mxGeometry relative="1" as="geometry" />
        </mxCell>
        <mxCell id="oe1nVjeeDrZ-jlYFfPf0-61" style="edgeStyle=orthogonalEdgeStyle;rounded=0;orthogonalLoop=1;jettySize=auto;html=1;exitX=0;exitY=0.5;exitDx=0;exitDy=0;endArrow=none;endFill=0;" edge="1" parent="1" source="oe1nVjeeDrZ-jlYFfPf0-47">
          <mxGeometry relative="1" as="geometry">
            <mxPoint x="100" y="-99.82352941176464" as="targetPoint" />
          </mxGeometry>
        </mxCell>
        <mxCell id="oe1nVjeeDrZ-jlYFfPf0-47" value="Domicilio" style="rounded=1;whiteSpace=wrap;html=1;" vertex="1" parent="1">
          <mxGeometry x="240" y="-130" width="120" height="60" as="geometry" />
        </mxCell>
        <mxCell id="oe1nVjeeDrZ-jlYFfPf0-53" style="edgeStyle=orthogonalEdgeStyle;rounded=0;orthogonalLoop=1;jettySize=auto;html=1;exitX=1;exitY=0.5;exitDx=0;exitDy=0;entryX=0;entryY=0.5;entryDx=0;entryDy=0;endArrow=none;endFill=0;" edge="1" parent="1" source="oe1nVjeeDrZ-jlYFfPf0-50" target="oe1nVjeeDrZ-jlYFfPf0-52">
          <mxGeometry relative="1" as="geometry" />
        </mxCell>
        <mxCell id="oe1nVjeeDrZ-jlYFfPf0-50" value="Tiene" style="rhombus;whiteSpace=wrap;html=1;" vertex="1" parent="1">
          <mxGeometry x="240" y="-300" width="120" height="80" as="geometry" />
        </mxCell>
        <mxCell id="oe1nVjeeDrZ-jlYFfPf0-52" value="Ciudad" style="rounded=1;whiteSpace=wrap;html=1;" vertex="1" parent="1">
          <mxGeometry x="480" y="-290" width="120" height="60" as="geometry" />
        </mxCell>
        <mxCell id="oe1nVjeeDrZ-jlYFfPf0-55" style="edgeStyle=orthogonalEdgeStyle;rounded=0;orthogonalLoop=1;jettySize=auto;html=1;exitX=0;exitY=0.5;exitDx=0;exitDy=0;entryX=1;entryY=0.5;entryDx=0;entryDy=0;endArrow=none;endFill=0;" edge="1" parent="1" source="oe1nVjeeDrZ-jlYFfPf0-54" target="oe1nVjeeDrZ-jlYFfPf0-52">
          <mxGeometry relative="1" as="geometry" />
        </mxCell>
        <mxCell id="oe1nVjeeDrZ-jlYFfPf0-57" style="edgeStyle=orthogonalEdgeStyle;rounded=0;orthogonalLoop=1;jettySize=auto;html=1;exitX=1;exitY=0.5;exitDx=0;exitDy=0;entryX=0;entryY=0.5;entryDx=0;entryDy=0;endArrow=none;endFill=0;" edge="1" parent="1" source="oe1nVjeeDrZ-jlYFfPf0-54" target="oe1nVjeeDrZ-jlYFfPf0-56">
          <mxGeometry relative="1" as="geometry" />
        </mxCell>
        <mxCell id="oe1nVjeeDrZ-jlYFfPf0-54" value="Tiene" style="rhombus;whiteSpace=wrap;html=1;" vertex="1" parent="1">
          <mxGeometry x="710" y="-300" width="120" height="80" as="geometry" />
        </mxCell>
        <mxCell id="oe1nVjeeDrZ-jlYFfPf0-56" value="Provincia" style="rounded=1;whiteSpace=wrap;html=1;" vertex="1" parent="1">
          <mxGeometry x="930" y="-290" width="120" height="60" as="geometry" />
        </mxCell>
        <mxCell id="oe1nVjeeDrZ-jlYFfPf0-60" style="edgeStyle=orthogonalEdgeStyle;rounded=0;orthogonalLoop=1;jettySize=auto;html=1;exitX=0;exitY=0.5;exitDx=0;exitDy=0;endArrow=none;endFill=0;" edge="1" parent="1" source="oe1nVjeeDrZ-jlYFfPf0-58">
          <mxGeometry relative="1" as="geometry">
            <mxPoint x="100" y="-100" as="targetPoint" />
          </mxGeometry>
        </mxCell>
        <mxCell id="oe1nVjeeDrZ-jlYFfPf0-62" style="edgeStyle=orthogonalEdgeStyle;rounded=0;orthogonalLoop=1;jettySize=auto;html=1;exitX=1;exitY=0.5;exitDx=0;exitDy=0;endArrow=none;endFill=0;" edge="1" parent="1" source="oe1nVjeeDrZ-jlYFfPf0-58">
          <mxGeometry relative="1" as="geometry">
            <mxPoint x="420" y="330" as="targetPoint" />
          </mxGeometry>
        </mxCell>
        <mxCell id="oe1nVjeeDrZ-jlYFfPf0-58" value="Tiene (procedencia)" style="rhombus;whiteSpace=wrap;html=1;" vertex="1" parent="1">
          <mxGeometry x="240" y="130" width="120" height="80" as="geometry" />
        </mxCell>
        <mxCell id="oe1nVjeeDrZ-jlYFfPf0-66" style="edgeStyle=orthogonalEdgeStyle;rounded=0;orthogonalLoop=1;jettySize=auto;html=1;exitX=0;exitY=0.5;exitDx=0;exitDy=0;entryX=1;entryY=0.5;entryDx=0;entryDy=0;endArrow=none;endFill=0;" edge="1" parent="1" source="oe1nVjeeDrZ-jlYFfPf0-63" target="oe1nVjeeDrZ-jlYFfPf0-65">
          <mxGeometry relative="1" as="geometry" />
        </mxCell>
        <mxCell id="oe1nVjeeDrZ-jlYFfPf0-63" value="Se paga en" style="rhombus;whiteSpace=wrap;html=1;" vertex="1" parent="1">
          <mxGeometry x="1169" y="590" width="120" height="80" as="geometry" />
        </mxCell>
        <mxCell id="oe1nVjeeDrZ-jlYFfPf0-65" value="Cuotas" style="rounded=1;whiteSpace=wrap;html=1;" vertex="1" parent="1">
          <mxGeometry x="950" y="600" width="120" height="60" as="geometry" />
        </mxCell>
        <mxCell id="oe1nVjeeDrZ-jlYFfPf0-69" style="edgeStyle=orthogonalEdgeStyle;rounded=0;orthogonalLoop=1;jettySize=auto;html=1;exitX=1;exitY=0.5;exitDx=0;exitDy=0;entryX=0;entryY=0.5;entryDx=0;entryDy=0;endArrow=none;endFill=0;" edge="1" parent="1" source="oe1nVjeeDrZ-jlYFfPf0-68" target="oe1nVjeeDrZ-jlYFfPf0-65">
          <mxGeometry relative="1" as="geometry" />
        </mxCell>
        <mxCell id="oe1nVjeeDrZ-jlYFfPf0-71" style="edgeStyle=orthogonalEdgeStyle;rounded=0;orthogonalLoop=1;jettySize=auto;html=1;exitX=0;exitY=0.5;exitDx=0;exitDy=0;entryX=1;entryY=0.5;entryDx=0;entryDy=0;endArrow=none;endFill=0;" edge="1" parent="1" source="oe1nVjeeDrZ-jlYFfPf0-68" target="oe1nVjeeDrZ-jlYFfPf0-70">
          <mxGeometry relative="1" as="geometry" />
        </mxCell>
        <mxCell id="oe1nVjeeDrZ-jlYFfPf0-68" value="Puede ser" style="rhombus;whiteSpace=wrap;html=1;" vertex="1" parent="1">
          <mxGeometry x="710" y="590" width="120" height="80" as="geometry" />
        </mxCell>
        <mxCell id="oe1nVjeeDrZ-jlYFfPf0-74" style="edgeStyle=orthogonalEdgeStyle;rounded=0;orthogonalLoop=1;jettySize=auto;html=1;exitX=0.5;exitY=1;exitDx=0;exitDy=0;entryX=0;entryY=0.5;entryDx=0;entryDy=0;endArrow=none;endFill=0;" edge="1" parent="1" source="oe1nVjeeDrZ-jlYFfPf0-70" target="oe1nVjeeDrZ-jlYFfPf0-72">
          <mxGeometry relative="1" as="geometry" />
        </mxCell>
        <mxCell id="oe1nVjeeDrZ-jlYFfPf0-70" value="" style="rounded=0;whiteSpace=wrap;html=1;sketch=0;" vertex="1" parent="1">
          <mxGeometry x="480" y="600" width="120" height="60" as="geometry" />
        </mxCell>
        <mxCell id="oe1nVjeeDrZ-jlYFfPf0-76" style="edgeStyle=orthogonalEdgeStyle;rounded=0;orthogonalLoop=1;jettySize=auto;html=1;exitX=1;exitY=0.5;exitDx=0;exitDy=0;entryX=0;entryY=0.5;entryDx=0;entryDy=0;endArrow=none;endFill=0;" edge="1" parent="1" source="oe1nVjeeDrZ-jlYFfPf0-72" target="oe1nVjeeDrZ-jlYFfPf0-75">
          <mxGeometry relative="1" as="geometry" />
        </mxCell>
        <mxCell id="oe1nVjeeDrZ-jlYFfPf0-72" value="Tiene" style="rhombus;whiteSpace=wrap;html=1;" vertex="1" parent="1">
          <mxGeometry x="710" y="730" width="120" height="80" as="geometry" />
        </mxCell>
        <mxCell id="oe1nVjeeDrZ-jlYFfPf0-78" style="edgeStyle=orthogonalEdgeStyle;rounded=0;orthogonalLoop=1;jettySize=auto;html=1;exitX=1;exitY=0.5;exitDx=0;exitDy=0;entryX=0;entryY=0.5;entryDx=0;entryDy=0;endArrow=none;endFill=0;" edge="1" parent="1" source="oe1nVjeeDrZ-jlYFfPf0-75" target="oe1nVjeeDrZ-jlYFfPf0-77">
          <mxGeometry relative="1" as="geometry" />
        </mxCell>
        <mxCell id="oe1nVjeeDrZ-jlYFfPf0-75" value="" style="rounded=0;whiteSpace=wrap;html=1;sketch=0;" vertex="1" parent="1">
          <mxGeometry x="950" y="740" width="120" height="60" as="geometry" />
        </mxCell>
        <mxCell id="oe1nVjeeDrZ-jlYFfPf0-79" style="edgeStyle=orthogonalEdgeStyle;rounded=0;orthogonalLoop=1;jettySize=auto;html=1;exitX=1;exitY=0.5;exitDx=0;exitDy=0;endArrow=none;endFill=0;" edge="1" parent="1" source="oe1nVjeeDrZ-jlYFfPf0-77">
          <mxGeometry relative="1" as="geometry">
            <mxPoint x="1410" y="170" as="targetPoint" />
          </mxGeometry>
        </mxCell>
        <mxCell id="oe1nVjeeDrZ-jlYFfPf0-77" value="Tiene un preferido" style="rhombus;whiteSpace=wrap;html=1;" vertex="1" parent="1">
          <mxGeometry x="1190" y="730" width="120" height="80" as="geometry" />
        </mxCell>
        <mxCell id="oe1nVjeeDrZ-jlYFfPf0-81" value="(0:1)" style="text;html=1;align=center;verticalAlign=middle;resizable=0;points=[];autosize=1;strokeColor=none;" vertex="1" parent="1">
          <mxGeometry x="540" y="270" width="40" height="20" as="geometry" />
        </mxCell>
        <mxCell id="oe1nVjeeDrZ-jlYFfPf0-83" value="(1:1)" style="text;html=1;align=center;verticalAlign=middle;resizable=0;points=[];autosize=1;strokeColor=none;" vertex="1" parent="1">
          <mxGeometry x="660" y="150" width="40" height="20" as="geometry" />
        </mxCell>
        <mxCell id="oe1nVjeeDrZ-jlYFfPf0-84" value="1:1" style="text;html=1;align=center;verticalAlign=middle;resizable=0;points=[];autosize=1;strokeColor=none;" vertex="1" parent="1">
          <mxGeometry x="525" y="100" width="30" height="20" as="geometry" />
        </mxCell>
        <mxCell id="oe1nVjeeDrZ-jlYFfPf0-85" value="(1:1)" style="text;html=1;align=center;verticalAlign=middle;resizable=0;points=[];autosize=1;strokeColor=none;" vertex="1" parent="1">
          <mxGeometry x="820" y="140" width="40" height="20" as="geometry" />
        </mxCell>
        <mxCell id="oe1nVjeeDrZ-jlYFfPf0-86" value="1:1" style="text;html=1;align=center;verticalAlign=middle;resizable=0;points=[];autosize=1;strokeColor=none;" vertex="1" parent="1">
          <mxGeometry x="975" y="100" width="30" height="20" as="geometry" />
        </mxCell>
        <mxCell id="oe1nVjeeDrZ-jlYFfPf0-87" value="(0:1)" style="text;html=1;align=center;verticalAlign=middle;resizable=0;points=[];autosize=1;strokeColor=none;" vertex="1" parent="1">
          <mxGeometry x="1130" y="140" width="40" height="20" as="geometry" />
        </mxCell>
        <mxCell id="oe1nVjeeDrZ-jlYFfPf0-88" value="(0:1)" style="text;html=1;align=center;verticalAlign=middle;resizable=0;points=[];autosize=1;strokeColor=none;" vertex="1" parent="1">
          <mxGeometry x="1230" y="200" width="40" height="20" as="geometry" />
        </mxCell>
        <mxCell id="oe1nVjeeDrZ-jlYFfPf0-89" value="1:N" style="text;html=1;align=center;verticalAlign=middle;resizable=0;points=[];autosize=1;strokeColor=none;" vertex="1" parent="1">
          <mxGeometry x="1285" y="310" width="30" height="20" as="geometry" />
        </mxCell>
        <mxCell id="oe1nVjeeDrZ-jlYFfPf0-90" value="(0:n)" style="text;html=1;align=center;verticalAlign=middle;resizable=0;points=[];autosize=1;strokeColor=none;" vertex="1" parent="1">
          <mxGeometry x="1230" y="414" width="40" height="20" as="geometry" />
        </mxCell>
        <mxCell id="oe1nVjeeDrZ-jlYFfPf0-91" value="(1:1)" style="text;html=1;align=center;verticalAlign=middle;resizable=0;points=[];autosize=1;strokeColor=none;" vertex="1" parent="1">
          <mxGeometry x="1230" y="500" width="40" height="20" as="geometry" />
        </mxCell>
        <mxCell id="oe1nVjeeDrZ-jlYFfPf0-92" value="1:N" style="text;html=1;align=center;verticalAlign=middle;resizable=0;points=[];autosize=1;strokeColor=none;" vertex="1" parent="1">
          <mxGeometry x="1285" y="620" width="30" height="20" as="geometry" />
        </mxCell>
        <mxCell id="oe1nVjeeDrZ-jlYFfPf0-93" value="(1:n)" style="text;html=1;align=center;verticalAlign=middle;resizable=0;points=[];autosize=1;strokeColor=none;" vertex="1" parent="1">
          <mxGeometry x="1070" y="610" width="40" height="20" as="geometry" />
        </mxCell>
        <mxCell id="oe1nVjeeDrZ-jlYFfPf0-94" value="(1:1)" style="text;html=1;align=center;verticalAlign=middle;resizable=0;points=[];autosize=1;strokeColor=none;" vertex="1" parent="1">
          <mxGeometry x="840" y="450" width="40" height="20" as="geometry" />
        </mxCell>
        <mxCell id="oe1nVjeeDrZ-jlYFfPf0-95" value="1:1" style="text;html=1;align=center;verticalAlign=middle;resizable=0;points=[];autosize=1;strokeColor=none;" vertex="1" parent="1">
          <mxGeometry x="995" y="404" width="30" height="20" as="geometry" />
        </mxCell>
        <mxCell id="oe1nVjeeDrZ-jlYFfPf0-96" value="(0:1)" style="text;html=1;align=center;verticalAlign=middle;resizable=0;points=[];autosize=1;strokeColor=none;" vertex="1" parent="1">
          <mxGeometry x="1130" y="440" width="40" height="20" as="geometry" />
        </mxCell>
        <mxCell id="oe1nVjeeDrZ-jlYFfPf0-97" value="(1:1)" style="text;html=1;align=center;verticalAlign=middle;resizable=0;points=[];autosize=1;strokeColor=none;" vertex="1" parent="1">
          <mxGeometry x="900" y="600" width="40" height="20" as="geometry" />
        </mxCell>
        <mxCell id="oe1nVjeeDrZ-jlYFfPf0-98" value="1:1" style="text;html=1;align=center;verticalAlign=middle;resizable=0;points=[];autosize=1;strokeColor=none;" vertex="1" parent="1">
          <mxGeometry x="755" y="570" width="30" height="20" as="geometry" />
        </mxCell>
        <mxCell id="oe1nVjeeDrZ-jlYFfPf0-99" value="(0:1)" style="text;html=1;align=center;verticalAlign=middle;resizable=0;points=[];autosize=1;strokeColor=none;" vertex="1" parent="1">
          <mxGeometry x="600" y="610" width="40" height="20" as="geometry" />
        </mxCell>
        <mxCell id="oe1nVjeeDrZ-jlYFfPf0-100" value="(1:n)" style="text;html=1;align=center;verticalAlign=middle;resizable=0;points=[];autosize=1;strokeColor=none;" vertex="1" parent="1">
          <mxGeometry x="540" y="350" width="40" height="20" as="geometry" />
        </mxCell>
        <mxCell id="oe1nVjeeDrZ-jlYFfPf0-101" value="1:N" style="text;html=1;align=center;verticalAlign=middle;resizable=0;points=[];autosize=1;strokeColor=none;" vertex="1" parent="1">
          <mxGeometry x="525" y="510" width="30" height="20" as="geometry" />
        </mxCell>
        <mxCell id="oe1nVjeeDrZ-jlYFfPf0-102" value="(1:1)" style="text;html=1;align=center;verticalAlign=middle;resizable=0;points=[];autosize=1;strokeColor=none;" vertex="1" parent="1">
          <mxGeometry x="680" y="440" width="40" height="20" as="geometry" />
        </mxCell>
        <mxCell id="oe1nVjeeDrZ-jlYFfPf0-103" value="(1:n)" style="text;html=1;align=center;verticalAlign=middle;resizable=0;points=[];autosize=1;strokeColor=none;" vertex="1" parent="1">
          <mxGeometry x="540" y="660" width="40" height="20" as="geometry" />
        </mxCell>
        <mxCell id="oe1nVjeeDrZ-jlYFfPf0-104" value="1:N" style="text;html=1;align=center;verticalAlign=middle;resizable=0;points=[];autosize=1;strokeColor=none;" vertex="1" parent="1">
          <mxGeometry x="755" y="700" width="30" height="20" as="geometry" />
        </mxCell>
        <mxCell id="oe1nVjeeDrZ-jlYFfPf0-105" value="(1:1)" style="text;html=1;align=center;verticalAlign=middle;resizable=0;points=[];autosize=1;strokeColor=none;" vertex="1" parent="1">
          <mxGeometry x="910" y="740" width="40" height="20" as="geometry" />
        </mxCell>
        <mxCell id="oe1nVjeeDrZ-jlYFfPf0-106" value="(1:1)" style="text;html=1;align=center;verticalAlign=middle;resizable=0;points=[];autosize=1;strokeColor=none;" vertex="1" parent="1">
          <mxGeometry x="1070" y="740" width="40" height="20" as="geometry" />
        </mxCell>
        <mxCell id="oe1nVjeeDrZ-jlYFfPf0-107" value="1:N" style="text;html=1;align=center;verticalAlign=middle;resizable=0;points=[];autosize=1;strokeColor=none;" vertex="1" parent="1">
          <mxGeometry x="1235" y="700" width="30" height="20" as="geometry" />
        </mxCell>
        <mxCell id="oe1nVjeeDrZ-jlYFfPf0-108" value="(0:n)" style="text;html=1;align=center;verticalAlign=middle;resizable=0;points=[];autosize=1;strokeColor=none;" vertex="1" parent="1">
          <mxGeometry x="1289" y="150" width="40" height="20" as="geometry" />
        </mxCell>
        <mxCell id="oe1nVjeeDrZ-jlYFfPf0-109" value="(1:n)" style="text;html=1;align=center;verticalAlign=middle;resizable=0;points=[];autosize=1;strokeColor=none;" vertex="1" parent="1">
          <mxGeometry x="440" y="290" width="40" height="20" as="geometry" />
        </mxCell>
        <mxCell id="oe1nVjeeDrZ-jlYFfPf0-110" value="N:M" style="text;html=1;align=center;verticalAlign=middle;resizable=0;points=[];autosize=1;strokeColor=none;" vertex="1" parent="1">
          <mxGeometry x="270" y="250" width="40" height="20" as="geometry" />
        </mxCell>
        <mxCell id="oe1nVjeeDrZ-jlYFfPf0-111" value="(1:n)" style="text;html=1;align=center;verticalAlign=middle;resizable=0;points=[];autosize=1;strokeColor=none;" vertex="1" parent="1">
          <mxGeometry x="160" y="300" width="40" height="20" as="geometry" />
        </mxCell>
        <mxCell id="oe1nVjeeDrZ-jlYFfPf0-112" value="(1:n)" style="text;html=1;align=center;verticalAlign=middle;resizable=0;points=[];autosize=1;strokeColor=none;" vertex="1" parent="1">
          <mxGeometry x="380" y="450" width="40" height="20" as="geometry" />
        </mxCell>
        <mxCell id="oe1nVjeeDrZ-jlYFfPf0-113" value="1:N" style="text;html=1;align=center;verticalAlign=middle;resizable=0;points=[];autosize=1;strokeColor=none;" vertex="1" parent="1">
          <mxGeometry x="275" y="404" width="30" height="20" as="geometry" />
        </mxCell>
        <mxCell id="oe1nVjeeDrZ-jlYFfPf0-114" value="(1:1)" style="text;html=1;align=center;verticalAlign=middle;resizable=0;points=[];autosize=1;strokeColor=none;" vertex="1" parent="1">
          <mxGeometry x="160" y="450" width="40" height="20" as="geometry" />
        </mxCell>
        <mxCell id="oe1nVjeeDrZ-jlYFfPf0-115" value="(1:n)" style="text;html=1;align=center;verticalAlign=middle;resizable=0;points=[];autosize=1;strokeColor=none;" vertex="1" parent="1">
          <mxGeometry x="380" y="580" width="40" height="20" as="geometry" />
        </mxCell>
        <mxCell id="oe1nVjeeDrZ-jlYFfPf0-116" value="1:N" style="text;html=1;align=center;verticalAlign=middle;resizable=0;points=[];autosize=1;strokeColor=none;" vertex="1" parent="1">
          <mxGeometry x="275" y="540" width="30" height="20" as="geometry" />
        </mxCell>
        <mxCell id="oe1nVjeeDrZ-jlYFfPf0-117" value="(1:1)" style="text;html=1;align=center;verticalAlign=middle;resizable=0;points=[];autosize=1;strokeColor=none;" vertex="1" parent="1">
          <mxGeometry x="160" y="580" width="40" height="20" as="geometry" />
        </mxCell>
        <mxCell id="oe1nVjeeDrZ-jlYFfPf0-118" value="Puede ser" style="rhombus;whiteSpace=wrap;html=1;" vertex="1" parent="1">
          <mxGeometry x="1170" y="-20" width="120" height="80" as="geometry" />
        </mxCell>
        <mxCell id="oe1nVjeeDrZ-jlYFfPf0-121" style="edgeStyle=orthogonalEdgeStyle;rounded=0;orthogonalLoop=1;jettySize=auto;html=1;exitX=1;exitY=0.5;exitDx=0;exitDy=0;entryX=0;entryY=0.5;entryDx=0;entryDy=0;endArrow=none;endFill=0;" edge="1" parent="1" source="oe1nVjeeDrZ-jlYFfPf0-120" target="oe1nVjeeDrZ-jlYFfPf0-118">
          <mxGeometry relative="1" as="geometry" />
        </mxCell>
        <mxCell id="oe1nVjeeDrZ-jlYFfPf0-120" value="Ganador" style="rounded=1;whiteSpace=wrap;html=1;" vertex="1" parent="1">
          <mxGeometry x="940" y="-10" width="120" height="60" as="geometry" />
        </mxCell>
        <mxCell id="oe1nVjeeDrZ-jlYFfPf0-122" value="(0:1)" style="text;html=1;align=center;verticalAlign=middle;resizable=0;points=[];autosize=1;strokeColor=none;" vertex="1" parent="1">
          <mxGeometry x="1060" width="40" height="20" as="geometry" />
        </mxCell>
        <mxCell id="oe1nVjeeDrZ-jlYFfPf0-123" value="1:1" style="text;html=1;align=center;verticalAlign=middle;resizable=0;points=[];autosize=1;strokeColor=none;" vertex="1" parent="1">
          <mxGeometry x="1215" y="-50" width="30" height="20" as="geometry" />
        </mxCell>
        <mxCell id="oe1nVjeeDrZ-jlYFfPf0-124" value="(1:1)" style="text;html=1;align=center;verticalAlign=middle;resizable=0;points=[];autosize=1;strokeColor=none;" vertex="1" parent="1">
          <mxGeometry x="1230" y="120" width="40" height="20" as="geometry" />
        </mxCell>
        <mxCell id="oe1nVjeeDrZ-jlYFfPf0-125" value="(1:n)" style="text;html=1;align=center;verticalAlign=middle;resizable=0;points=[];autosize=1;strokeColor=none;" vertex="1" parent="1">
          <mxGeometry x="360" y="150" width="40" height="20" as="geometry" />
        </mxCell>
        <mxCell id="oe1nVjeeDrZ-jlYFfPf0-126" value="(1:1)" style="text;html=1;align=center;verticalAlign=middle;resizable=0;points=[];autosize=1;strokeColor=none;" vertex="1" parent="1">
          <mxGeometry x="610" width="40" height="20" as="geometry" />
        </mxCell>
        <mxCell id="oe1nVjeeDrZ-jlYFfPf0-130" value="1:1" style="text;html=1;align=center;verticalAlign=middle;resizable=0;points=[];autosize=1;strokeColor=none;" vertex="1" parent="1">
          <mxGeometry x="525" y="-30" width="30" height="20" as="geometry" />
        </mxCell>
        <mxCell id="oe1nVjeeDrZ-jlYFfPf0-131" value="(1:1)" style="text;html=1;align=center;verticalAlign=middle;resizable=0;points=[];autosize=1;strokeColor=none;" vertex="1" parent="1">
          <mxGeometry x="360" width="40" height="20" as="geometry" />
        </mxCell>
        <mxCell id="oe1nVjeeDrZ-jlYFfPf0-132" value="(1:1)" style="text;html=1;align=center;verticalAlign=middle;resizable=0;points=[];autosize=1;strokeColor=none;" vertex="1" parent="1">
          <mxGeometry x="360" y="-120" width="40" height="20" as="geometry" />
        </mxCell>
        <mxCell id="oe1nVjeeDrZ-jlYFfPf0-133" value="1:N" style="text;html=1;align=center;verticalAlign=middle;resizable=0;points=[];autosize=1;strokeColor=none;" vertex="1" parent="1">
          <mxGeometry x="525" y="-160" width="30" height="20" as="geometry" />
        </mxCell>
        <mxCell id="oe1nVjeeDrZ-jlYFfPf0-134" value="(1:n)" style="text;html=1;align=center;verticalAlign=middle;resizable=0;points=[];autosize=1;strokeColor=none;" vertex="1" parent="1">
          <mxGeometry x="600" y="-120" width="40" height="20" as="geometry" />
        </mxCell>
        <mxCell id="oe1nVjeeDrZ-jlYFfPf0-135" value="(1:n)" style="text;html=1;align=center;verticalAlign=middle;resizable=0;points=[];autosize=1;strokeColor=none;" vertex="1" parent="1">
          <mxGeometry x="300" y="-150" width="40" height="20" as="geometry" />
        </mxCell>
        <mxCell id="oe1nVjeeDrZ-jlYFfPf0-136" value="1:N" style="text;html=1;align=center;verticalAlign=middle;resizable=0;points=[];autosize=1;strokeColor=none;" vertex="1" parent="1">
          <mxGeometry x="285" y="-320" width="30" height="20" as="geometry" />
        </mxCell>
        <mxCell id="oe1nVjeeDrZ-jlYFfPf0-137" value="1:1" style="text;html=1;align=center;verticalAlign=middle;resizable=0;points=[];autosize=1;strokeColor=none;" vertex="1" parent="1">
          <mxGeometry x="445" y="-280" width="30" height="20" as="geometry" />
        </mxCell>
        <mxCell id="oe1nVjeeDrZ-jlYFfPf0-138" value="(1:n)" style="text;html=1;align=center;verticalAlign=middle;resizable=0;points=[];autosize=1;strokeColor=none;" vertex="1" parent="1">
          <mxGeometry x="600" y="-280" width="40" height="20" as="geometry" />
        </mxCell>
        <mxCell id="oe1nVjeeDrZ-jlYFfPf0-139" value="1:N" style="text;html=1;align=center;verticalAlign=middle;resizable=0;points=[];autosize=1;strokeColor=none;" vertex="1" parent="1">
          <mxGeometry x="755" y="-320" width="30" height="20" as="geometry" />
        </mxCell>
        <mxCell id="oe1nVjeeDrZ-jlYFfPf0-140" value="(1:1)" style="text;html=1;align=center;verticalAlign=middle;resizable=0;points=[];autosize=1;strokeColor=none;" vertex="1" parent="1">
          <mxGeometry x="890" y="-280" width="40" height="20" as="geometry" />
        </mxCell>
        <mxCell id="oe1nVjeeDrZ-jlYFfPf0-141" value="1:N" style="text;html=1;align=center;verticalAlign=middle;resizable=0;points=[];autosize=1;strokeColor=none;" vertex="1" parent="1">
          <mxGeometry x="285" y="110" width="30" height="20" as="geometry" />
        </mxCell>
        <mxCell id="oe1nVjeeDrZ-jlYFfPf0-142" value="(1:1)" style="text;html=1;align=center;verticalAlign=middle;resizable=0;points=[];autosize=1;strokeColor=none;" vertex="1" parent="1">
          <mxGeometry x="200" y="-120" width="40" height="20" as="geometry" />
        </mxCell>
        <mxCell id="oe1nVjeeDrZ-jlYFfPf0-143" value="cuotaPagada" style="rounded=0;whiteSpace=wrap;html=1;sketch=0;" vertex="1" parent="1">
          <mxGeometry x="485" y="605" width="110" height="50" as="geometry" />
        </mxCell>
        <mxCell id="oe1nVjeeDrZ-jlYFfPf0-144" value="Metodo Pago" style="rounded=0;whiteSpace=wrap;html=1;sketch=0;" vertex="1" parent="1">
          <mxGeometry x="955" y="745" width="110" height="50" as="geometry" />
        </mxCell>
      </root>
    </mxGraphModel>
  </diagram>
</mxfile>
